<?xml version="1.0" encoding="UTF-8" standalone="no"?>
<svg
   version="1.1"
   id="Layer_1"
   x="0px"
   y="0px"
   width="100%"
   viewBox="0 0 1024 1024"
   enable-background="new 0 0 1024 1024"
   xml:space="preserve"
   sodipodi:docname="file.svg"
   inkscape:version="1.4.2 (ebf0e940, 2025-05-08)"
   xmlns:inkscape="http://www.inkscape.org/namespaces/inkscape"
   xmlns:sodipodi="http://sodipodi.sourceforge.net/DTD/sodipodi-0.dtd"
   xmlns="http://www.w3.org/2000/svg"
   xmlns:svg="http://www.w3.org/2000/svg"><defs
   id="defs11"><inkscape:path-effect
     effect="fill_between_many"
     method="originald"
     linkedpaths="#path1,0,1|"
     id="path-effect61" /></defs><sodipodi:namedview
   id="namedview11"
   pagecolor="#ffffff"
   bordercolor="#000000"
   borderopacity="0.25"
   inkscape:showpageshadow="2"
   inkscape:pageopacity="0.0"
   inkscape:pagecheckerboard="0"
   inkscape:deskcolor="#d1d1d1"
   inkscape:zoom="0.60173523"
   inkscape:cx="377.24233"
   inkscape:cy="446.20954"
   inkscape:window-width="1512"
   inkscape:window-height="920"
   inkscape:window-x="0"
   inkscape:window-y="34"
   inkscape:window-maximized="1"
   inkscape:current-layer="Layer_1" />











<path
   id="path16"
   style="display:inline;fill:#ffffff;fill-opacity:1"
   inkscape:label="bite_fill"
   d="m 736.34375,198.41797 c -1.54664,0.28321 -3.11128,0.48841 -4.63086,0.90234 -5.52527,1.53825 -10.72585,4.07098 -15.67383,6.93946 -9.20885,5.49113 -17.58843,12.59605 -23.8164,21.37304 -5.65708,7.90649 -9.29482,17.35431 -9.76368,27.10547 -0.44044,7.71715 1.05432,15.44415 3.71485,22.66992 1.71848,4.44596 3.21298,9.25467 2.38476,14.06641 -0.84284,4.7148 -4.10676,8.51132 -7.57031,11.61328 -5.54637,4.64104 -10.45416,10.08586 -14.20898,16.28125 -5.72887,9.29113 -8.74085,20.16181 -8.94922,31.05469 -0.0947,8.0587 0.87922,16.18686 3.39648,23.86328 3.66677,11.29261 11.05473,21.13161 20.14844,28.65625 2.85634,2.27061 5.74778,4.61909 7.75781,7.71289 2.82957,4.15419 3.60014,9.41482 2.85156,14.31836 -1.78338,9.80438 -3.25785,19.68834 -3.69726,29.6543 -0.65749,13.50847 0.57038,27.16865 4.31836,40.18945 3.92056,13.951 10.90712,27.08148 20.61914,37.86523 9.25082,10.17451 20.56119,18.59813 33.27539,23.92188 12.12586,5.09603 25.32209,7.31583 38.43555,7.39453 3.89309,0.0965 7.7455,-0.24423 11.58789,-0.26953 4.19775,-0.0239 8.71224,0.39922 12.19922,2.96484 3.5375,2.67381 5.21932,6.98891 6.4082,11.11328 0.98495,3.77753 2.00042,7.55856 3.45898,11.1875 3.79141,9.82651 10.1439,18.60259 18.14453,25.4336 5.83154,4.97908 12.37415,9.21449 19.53516,12.01172 4.94812,2.02902 10.2169,3.02953 15.39453,4.27539 -3.35729,-3.73859 -6.82256,-7.38681 -9.95508,-11.32032 -1.36919,-1.69317 -2.77983,-3.54555 -3.99414,-5.23046 -8.03682,-11.0653 -14.09832,-23.55332 -17.80273,-36.71875 -1.12184,-3.96282 -2.08183,-8.10891 -2.81445,-12.23633 -0.32934,-1.82676 -0.64066,-3.83098 -0.88086,-5.66407 -0.23364,-1.88454 -0.50574,-3.82777 -0.65235,-5.79101 -0.26084,-3.22035 -0.63104,-6.76976 -2.95117,-9.23633 -2.13807,-2.32439 -5.25655,-3.22902 -8.1543,-4.19531 -0.89621,-0.30269 -1.94942,-0.70165 -2.73242,-0.98242 -2.78186,-1.05241 -5.52968,-2.20249 -8.19922,-3.51563 -2.26576,-1.09455 -4.68381,-2.39229 -6.96679,-3.76172 -1.53179,-0.9149 -3.14046,-1.9544 -4.54883,-2.91015 -6.21907,-4.24393 -11.92061,-9.23509 -17.01172,-14.7793 -7.49879,-8.24382 -13.82173,-17.55054 -18.83398,-27.5 -2.72727,-5.44613 -5.10987,-11.20968 -6.875,-16.94922 -0.92661,-2.97426 -1.74391,-6.09892 -2.41211,-9.2168 -0.54622,-2.5449 -0.97656,-4.96667 -1.33594,-7.51953 -0.65173,-4.58628 -0.99716,-9.29341 -1.03906,-13.84765 -0.0716,-3.72785 0.19296,-7.44684 0.39453,-11.16602 0.29348,-3.39889 -0.85982,-6.95186 -3.36133,-9.32031 -2.38528,-2.04116 -4.92117,-3.92116 -7.12695,-6.16797 -5.72693,-5.59666 -10.02832,-12.43956 -13.76368,-19.47266 -0.87607,-1.65559 -1.7735,-3.44486 -2.5332,-5.06836 -1.65995,-3.52263 -3.19054,-7.25983 -4.49219,-11.0039 -4.74074,-13.48165 -6.67796,-27.9161 -5.79297,-42.17383 0.0302,-0.57597 0.0974,-1.38967 0.12891,-1.93945 0.20744,-2.60737 0.48819,-5.22559 0.84766,-7.74219 0.4373,-3.07639 0.97075,-6.06698 1.61523,-9.06445 0.80432,-3.76928 1.80021,-7.60095 2.9375,-11.35352 2.06134,-6.9844 4.7505,-13.80557 8.36914,-20.13672 3.01447,-5.35226 6.66513,-10.3246 10.7168,-14.93555 1.44712,-1.64582 2.97248,-3.42059 3.29687,-5.67187 0.40633,-1.93885 -0.5207,-3.75813 -1.1582,-5.5293 -0.35152,-0.96266 -0.78474,-2.20859 -1.12695,-3.15039 -4.51118,-12.97377 -6.61209,-26.72637 -6.64649,-40.44531 -0.11652,-4.84004 0.33802,-9.70152 -0.18554,-14.52539 z" /><g
   inkscape:groupmode="layer"
   id="layer3"
   inkscape:label="logo"
   transform="translate(-23.4263,18.247022)"><g
     inkscape:groupmode="layer"
     id="layer2"
     inkscape:label="dice"><path
       id="path93"
       style="display:inline;fill:#e1bc45;stroke-width:1.12133"
       d="m 536.82957,21.076583 c -7.23764,-0.06171 -14.49414,1.961793 -21.63386,6.130107 -118.40237,69.854995 -236.80394,139.7095 -355.19358,209.58658 -1.52798,0.90198 -3.50851,1.40839 -4.17872,3.4954 124.38247,75.01869 250.21918,147.61802 375.18048,221.68691 3.29365,1.95224 5.96839,2.04949 9.29044,0.092 36.21238,-21.33758 72.49893,-42.54827 108.73875,-63.8394 7.40598,-4.35109 7.35329,-4.43978 3.19537,-12.14412 -21.68678,-40.18417 -15.60046,-87.45242 15.72277,-120.84568 3.20208,-3.41373 3.7097,-6.66086 2.73107,-11.14545 -7.70656,-35.31292 0.59981,-66.18637 26.76528,-92.64367 11.75232,-11.43749 26.5688,-20.03646 41.67334,-26.22433 C 680.08402,98.641836 618.48669,63.021004 558.34956,27.458552 551.28749,23.285814 544.06722,21.138294 536.82957,21.076583 Z M 319.27759,265.35662 c 7.156,1.50779 14.54117,2.05188 21.89011,1.68639 -7.34894,0.36549 -14.73411,-0.1786 -21.89011,-1.68639 z m -189.69604,7.68509 c -2.47024,7.20285 -2.52216,14.25543 -2.5208,21.32944 0.0917,136.03781 -0.17899,272.07549 0.10731,408.11312 0.0437,17.87489 6.46485,32.78459 22.67198,42.27999 l 215.85027,127.61091 c 49.5168,29.34262 99.75683,58.77464 149.55358,88.28317 1.0571,-151.26842 0.46204,-303.32153 0.5979,-454.81713 0.004,-4.71602 -1.51905,-7.38662 -5.58477,-9.77663 -51.69085,-30.38674 -103.22816,-61.0364 -154.90839,-91.4413 -67.4575,-39.68701 -134.9787,-79.2634 -202.55633,-118.74536 -7.49696,-4.38005 -14.54923,-9.68284 -23.21075,-12.83621 z m 545.55541,156.22025 c -3.24957,1.6676 -5.24818,2.56257 -7.12222,3.67281 -17.32139,10.26259 -34.62355,20.55723 -51.94055,30.82794 -17.86706,10.59693 -35.75048,21.16872 -53.68388,31.65142 -5.15333,3.01232 -7.21106,6.25925 -7.20545,12.32153 0.13792,148.57029 0.0723,297.14243 0.0701,445.71285 0,2.16958 -0.48901,4.44654 1.03373,7.02148 L 927.54668,740.31177 c 15.9444,-14.10416 16.67309,-35.62397 16.3798,-55.41844 -0.0323,-3.00434 -1.94119,-3.04158 -4.25757,-2.77486 -11.05798,1.27388 -22.03172,0.55274 -32.80559,-2.1463 -3.62167,-0.90725 -5.20076,0.32118 -6.16296,3.55234 -1.82101,6.1145 -4.34257,11.97831 -7.73326,17.3566 -35.11884,55.70427 -80.96851,29.26885 -66.95811,-19.34083 v -0.002 c 2.71527,-9.41974 7.67831,-19.67109 15.403,-30.31983 1.65483,-2.28113 2.80101,-4.11281 0.22997,-6.76524 -9.50993,-9.81133 -16.32304,-21.30275 -20.4556,-34.34962 -4.66498,-14.73047 -84.43039,1.79898 -128.0993,-74.59063 -1.01879,-1.86515 -1.44649,-4.29186 -3.74507,-5.29568 -0.35159,0.29792 -0.7834,0.48176 -0.8629,0.76435 -0.2995,1.06373 -0.50188,2.15575 -0.70959,3.24355 -5.10964,26.76409 -18.26632,44.55287 -32.51432,53.58095 -2.03543,1.28972 -4.09231,2.40058 -6.15201,3.33333 -14.93661,6.76408 -29.97952,4.15825 -37.39168,-7.57995 v -0.002 c -3.36887,-5.33591 -5.16194,-12.55757 -4.65179,-21.64481 2.11432,-37.65756 37.41094,-81.66816 70.85869,-64.72858 -4.68314,-22.67677 -5.8198,-44.62838 -2.78143,-67.92177 z"
       inkscape:label="dice_fill" /><path
       id="path10"
       d="m 680.99303,742.2551 c 29.97832,12.12196 18.09611,82.37088 -31.09567,100.19504 -15.82566,4.93012 -32.21153,-8.33594 -33.72704,-24.19936 -4.25266,-41.74498 35.82525,-86.57554 64.82271,-75.99568 z M 544.05069,85.790706 c 63.09513,6.827188 54.22213,60.899054 5.83053,64.590214 -92.49753,11.84315 -95.74863,-71.171549 -5.83053,-64.590214 z M 491.55605,335.1206 c 50.9703,-40.1408 138.50911,7.37634 90.96379,39.95705 -43.16969,29.58262 -126.55492,-1.17538 -90.96379,-39.95724 z M 373.09742,259.44635 c -26.5717,11.8789 -60.09524,10.52677 -83.57995,-7.5668 -20.39023,-15.70179 -7.16063,-47.08131 39.79564,-51.4392 66.00026,-3.50703 81.22913,41.6716 43.78431,59.006 z m 160.86161,10.10372 c -20.77358,-0.66812 -45.7309,-6.61251 -55.43055,-27.0878 -9.84015,-31.92942 57.44574,-55.80585 101.23307,-26.96479 19.54112,13.04743 17.43722,52.25666 -45.80252,54.05259 z M 178.63401,398.15306 c 9.2275,-15.649 21.48396,-19.45598 37.10363,-11.10046 15.76663,8.43414 25.92283,22.16155 33.39694,37.98855 6.48354,13.72924 10.33863,28.045 7.03859,43.34261 -3.9001,18.07929 -19.19052,25.95885 -36.19631,18.63668 -19.18642,-8.26109 -30.783,-23.79578 -38.56085,-42.34156 -6.2377,-14.87343 -9.38626,-30.29259 -2.782,-46.52582 z m 204.58974,399.82475 c -3.38487,-11.2891 -4.86939,-22.19165 -2.32589,-33.51266 3.51403,-15.64085 17.18806,-24.1147 32.52103,-19.68378 16.49851,4.7678 27.20661,16.66451 35.99031,30.38963 9.13569,14.27518 14.03609,29.83561 13.06508,47.20809 -1.22215,21.86602 -18.27842,33.03699 -38.21016,24.17438 -18.42358,-8.19195 -29.85358,-23.05388 -38.01045,-40.86607 -1.08643,-2.37258 -1.94623,-4.84883 -3.02992,-7.70959 z m -249.4499,-16.50504 c -30.91422,-17.92589 -46.180369,-45.26388 -46.298558,-80.40646 1.192595,-136.57339 -1.963176,-273.21724 0,-409.78355 C 88.10648,255.45704 102.54683,226.39198 132.97682,206.68788 254.03169,134.77525 374.99096,62.635299 497.0986,-7.4868137 521.73948,-21.587241 547.89914,-21.564134 573.39772,-8.9750239 648.52875,33.883611 784.73765,115.21016 787.73491,117.27227 c 10.61941,7.30621 13.37676,15.03353 10.16113,27.44395 -7.36046,28.40694 -6.54931,56.07872 6.86482,82.85933 6.53952,13.05581 5.3737,18.9386 -6.42639,29.50156 -27.99969,25.06439 -34.83679,81.21549 -11.33702,114.09691 5.05935,7.07918 11.30513,12.986 18.67654,17.5254 8.30517,5.11445 11.49122,12.13042 10.05396,21.76103 -3.454,23.14408 -1.17527,45.46301 10.70805,66.13357 13.67282,23.78364 33.91188,38.34257 61.12408,42.75091 11.27781,1.82703 16.73419,7.68795 16.48889,19.38757 -0.32379,15.44217 1.08219,30.58935 6.28061,45.21255 9.64413,27.12912 27.96806,45.39145 55.53979,54.2271 13.91046,4.45768 18.08658,10.07161 17.84971,24.55327 -0.27466,16.79545 1.36751,33.65755 -0.90555,50.37873 -4.07996,30.01391 -19.07178,52.7767 -45.39816,68.26103 -64.07121,37.6848 -127.99957,75.61279 -191.9478,113.50634 -52.38255,31.04017 -104.73052,62.13893 -157.05059,93.28421 -15.05197,8.96028 -30.47354,16.65417 -48.45972,17.50557 -19.38017,0.9171 -36.6401,-5.1161 -53.08006,-14.91453 M 365.69041,872.37462 c 49.5168,29.34262 99.75673,58.77558 149.55348,88.28411 1.0571,-151.26842 0.46211,-303.32253 0.59797,-454.81813 0.004,-4.71602 -1.51905,-7.3871 -5.58477,-9.77711 C 458.56624,465.67676 407.02907,435.02852 355.34884,404.62362 287.89134,364.9366 220.36895,325.35958 152.79131,285.87761 c -7.49696,-4.38004 -14.549,-9.68318 -23.21052,-12.83655 -2.47024,7.20285 -2.52166,14.25537 -2.5203,21.32937 0.0917,136.03781 -0.17876,272.076 0.10754,408.11362 0.0437,17.8749 6.46491,32.78405 22.67204,42.27945 M 697.44723,161.44963 c 11.75231,-11.43749 26.56932,-20.03637 41.67386,-26.22424 C 680.0842,98.642318 618.48574,63.020545 558.3486,27.458091 544.22447,19.112614 529.47568,18.870198 515.19625,27.206827 396.79388,97.06182 278.39099,166.91718 160.00134,236.79426 c -1.52797,0.90197 -3.50684,1.40789 -4.17705,3.49489 124.38247,75.01869 250.21878,147.6176 375.18008,221.6865 3.29365,1.95224 5.96757,2.04874 9.28961,0.0913 36.21238,-21.33757 72.50025,-42.54701 108.74007,-63.83813 7.40597,-4.35109 7.35335,-4.44067 3.19543,-12.14502 -21.68677,-40.18417 -15.60129,-87.45162 15.72195,-120.84489 3.20207,-3.41372 3.70873,-6.66192 2.7301,-11.14651 -7.70657,-35.31292 0.60023,-66.18546 26.7657,-92.64276 m 230.0987,578.86282 c 15.9444,-14.10416 16.67329,-35.62527 16.38,-55.41973 -0.0323,-3.00435 -1.94077,-3.04042 -4.25716,-2.7737 -11.05798,1.27388 -22.03061,0.55129 -32.8045,-2.14775 -3.62168,-0.90725 -5.20178,0.32195 -6.16398,3.5531 -1.821,6.11451 -4.34168,11.97893 -7.73237,17.35722 -41.9247,66.4995 -99.14335,15.93986 -51.55496,-49.66231 1.65483,-2.28113 2.80093,-4.11377 0.22989,-6.7662 -9.50992,-9.81132 -16.32369,-21.30295 -20.45621,-34.34982 -4.665,-14.73047 -84.43122,1.79857 -128.10012,-74.59104 -1.0188,-1.86515 -1.4454,-4.29178 -3.74398,-5.2956 -0.35159,0.29791 -0.78345,0.48141 -0.8629,0.764 -0.2995,1.06371 -0.50174,2.1565 -0.70946,3.2443 -13.53947,70.91923 -83.58163,78.82268 -80.71095,27.68821 2.11432,-37.65756 37.41114,-81.66957 70.8589,-64.72999 -4.68314,-22.67676 -5.81857,-44.62884 -2.78021,-67.92223 -3.24957,1.66759 -5.24996,2.56468 -7.124,3.67496 -35.19316,20.85124 -70.30802,41.83626 -105.62293,62.47904 -5.15333,3.01232 -7.21127,6.25956 -7.20566,12.32184 0.13791,148.57028 0.0711,297.14065 0.0691,445.71107 0,2.16958 -0.48867,4.44791 1.03407,7.02285 M 683.11674,297.37751 c -10.17632,16.31992 -12.47169,34.0269 -9.23621,52.69232 3.15936,18.2263 12.93579,32.46394 27.18578,43.68504 8.17292,6.4357 11.46582,13.94034 9.52525,24.40775 -4.09954,22.11356 -5.9755,44.36275 -1.51836,66.73283 5.73158,28.76673 20.15945,52.07518 44.11906,69.01456 21.30468,15.06231 45.53026,19.85248 71.25121,18.49558 15.93548,-0.8406 21.39897,3.05813 25.18279,18.28724 5.09754,20.51644 17.05258,35.83137 34.9053,46.72667 8.21844,5.01561 17.1345,8.12324 27.71544,9.64852 -24.33885,-24.31292 -37.67474,-52.88799 -40.56856,-87.54703 -0.65019,-7.78727 -3.66747,-10.65425 -10.57745,-12.88145 -26.37244,-8.50036 -45.98163,-25.73812 -60.58156,-48.96578 -14.66029,-23.32364 -21.37557,-48.70829 -19.17786,-76.24378 0.44061,-5.52017 -0.83313,-9.52556 -5.42579,-13.01563 -6.71732,-5.10469 -12.28711,-11.48447 -16.75999,-18.67483 -22.47247,-36.12614 -24.7588,-74.27282 -11.12909,-113.92746 4.1729,-12.14069 10.52989,-23.03284 19.04708,-32.69042 2.67781,-3.0364 5.39875,-6.10276 3.4978,-10.96975 -14.54752,-37.24486 -7.06913,-64.15338 -10.36591,-69.24616 -2.92798,0 -27.73665,6.57012 -44.0782,25.86412 -15.73571,18.57874 -20.47716,39.78589 -11.52483,63.22222 4.97374,13.02079 3.16697,20.04897 -6.9776,28.83284 -5.38746,4.66492 -10.29822,9.76818 -14.5083,16.55255 z"
       style="display:inline;stroke-width:1.12133"
       inkscape:label="dice_stroke" /></g></g></svg>
